#!OML:ASF H:\ManfredETheater\Project 1\Capture day 1\Session 1\subject.ASF
:FULLY-SPECIFIED
:DEGREES
151
root 0.795092 16.7848 31.0084 -166.609 -4.78999 176.587
lowerback 10.1704 -1.19491 -3.4281
upperback -0.925885 -1.91865 1.90631
thorax -6.51377 -0.79414 4.24449
lowerneck -17.4085 -0.719581 -1.80886
upperneck 17.2047 -0.446875 -1.20566
head 8.21406 -0.530029 -0.170867
rclavicle 3.97569e-015 1.11319e-014
rhumerus -34.7829 -7.07008 -80.1588
rradius 36.6975
rwrist -2.09374
rhand -20.128 -12.849
rfingers 7.12502
rthumb 6.21623 -42.7378
lclavicle 3.97569e-015 1.11319e-014
lhumerus -35.3636 -0.591375 88.2081
lradius 38.6593
lwrist -10.0956
lhand -9.69024 10.3525
lfingers 7.12502
lthumb 16.2819 39.6889
rfemur -42.0724 -5.98482 16.0882
rtibia 50.0729
rfoot -16.984 -3.12823
rtoes 7.97495
lfemur -14.5358 -6.24255 -26.2579
ltibia 33.9463
lfoot -29.107 3.359
ltoes 6.91983
152
root 0.803654 16.7715 30.9461 -166.286 -4.72266 176.557
lowerback 10.3047 -1.19668 -3.3982
upperback -0.877142 -1.92173 1.93045
thorax -6.5381 -0.797341 4.25763
lowerneck -17.3188 -0.721122 -1.79946
upperneck 16.8514 -0.442765 -1.20852
head 8.0797 -0.518121 -0.170139
rclavicle 5.96354e-016 1.35174e-014
rhumerus -34.7137 -6.88078 -80.2557
rradius 36.9208
rwrist -2.21295
rhand -20.1484 -12.8629
rfingers 7.12502
rthumb 6.19659 -42.7523
lclavicle 5.96354e-016 1.35174e-014
lhumerus -35.3954 -0.799285 88.3436
lradius 38.8342
lwrist -9.96621
lhand -9.77293 10.3891
lfingers 7.12502
lthumb 16.2023 39.732
rfemur -42.4209 -6.04122 16.1616
rtibia 50.4798
rfoot -17.3293 -3.12157
rtoes 7.53935
lfemur -14.6605 -6.29062 -26.2468
ltibia 33.9634
lfoot -29.3013 3.52264
ltoes 6.7893
153
root 0.812266 16.7578 30.8817 -165.947 -4.6454 176.523
lowerback 10.4293 -1.19839 -3.37232
upperback -0.830169 -1.92496 1.95291
thorax -6.55869 -0.80057 4.27098
lowerneck -17.2263 -0.902897 -1.73349
upperneck 16.4859 -0.382998 -1.24954
head 7.94202 -0.360223 -0.168152
rclavicle 3.75703e-014 -1.51076e-014
rhumerus -34.6366 -6.69794 -80.3535
rradius 37.1383
rwrist -2.32601
rhand -20.1733 -12.8741
rfingers 7.12502
rthumb 6.17255 -42.7642
lclavicle 3.75703e-014 -1.51076e-014
lhumerus -35.4269 -1.00066 88.4759
lradius 38.9993
lwrist -9.8423
lhand -9.84742 10.4281
lfingers 7.12502
lthumb 16.1306 39.7768
rfemur -42.783 -6.09741 16.2326
rtibia 50.895
rfoot -17.6804 -3.10768
rtoes 7.11549
lfemur -14.7871 -6.3263 -26.2405
ltibia 33.97
lfoot -29.4983 3.68439
ltoes 6.64665
154
root 0.820911 16.7437 30.8151 -165.595 -4.55739 176.485
lowerback 10.5479 -1.19983 -3.35041
upperback -0.786615 -1.92817 1.97294
thorax -6.57942 -0.803599 4.28389
lowerneck -17.1279 -0.882354 -1.72913
upperneck 16.1156 -0.379821 -1.24299
head 7.80148 -0.359632 -0.165532
rclavicle -1.49089e-014 -2.46493e-014
rhumerus -34.5542 -6.51722 -80.4552
rradius 37.3549
rwrist -2.4397
rhand -20.2017 -12.8872
rfingers 7.12502
rthumb 6.14512 -42.7781
lclavicle -1.49089e-014 -2.46493e-014
lhumerus -35.463 -1.1935 88.6049
lradius 39.1591
lwrist -9.72669
lhand -9.90495 10.4782
lfingers 7.12502
lthumb 16.0752 39.8314
rfemur -43.1585 -6.15165 16.299
rtibia 51.3181
rfoot -18.0366 -3.08269
rtoes 6.71717
lfemur -14.9139 -6.34636 -26.2407
ltibia 33.9633
lfoot -29.6938 3.85106
ltoes 6.45949
155
root 0.829635 16.7294 30.7463 -165.233 -4.46463 176.444
lowerback 10.6646 -1.20297 -3.32928
upperback -0.745931 -1.93371 1.99191
thorax -6.60192 -0.807646 4.29651
lowerneck -17.029 -0.85947 -1.72202
upperneck 15.741 -0.373523 -1.23645
head 7.65996 -0.357092 -0.162979
rclavicle -8.15017e-015 -2.62396e-014
rhumerus -34.4639 -6.34714 -80.5582
rradius 37.5651
rwrist -2.54396
rhand -20.2307 -12.9001
rfingers 7.12502
rthumb 6.11713 -42.7918
lclavicle -8.15017e-015 -2.62396e-014
lhumerus -35.5028 -1.37884 88.7317
lradius 39.313
lwrist -9.61815
lhand -9.95475 10.5273
lfingers 7.12502
lthumb 16.0272 39.8844
rfemur -43.5416 -6.20485 16.3628
rtibia 51.7475
rfoot -18.3969 -3.0477
rtoes 6.36421
lfemur -15.0349 -6.35553 -26.2435
ltibia 33.9412
lfoot -29.8892 4.01977
ltoes 6.24191
156
root 0.838458 16.7147 30.6751 -164.858 -4.36355 176.401
lowerback 10.7771 -1.20685 -3.31137
upperback -0.709221 -1.94048 2.00922
thorax -6.62599 -0.812062 4.30936
lowerneck -16.9286 -0.834394 -1.71344
upperneck 15.3611 -0.364174 -1.22897
head 7.51696 -0.352605 -0.159985
rclavicle 1.39149e-014 -1.74931e-014
rhumerus -34.3762 -6.17777 -80.664
rradius 37.7819
rwrist -2.65044
rhand -20.2613 -12.9088
rfingers 7.12502
rthumb 6.08759 -42.8013
lclavicle 1.39149e-014 -1.74931e-014
lhumerus -35.5458 -1.55751 88.8578
lradius 39.4628
lwrist -9.51587
lhand -9.98728 10.5864
lfingers 7.12502
lthumb 15.9959 39.946
rfemur -43.9364 -6.25273 16.4219
rtibia 52.1839
rfoot -18.7579 -3.00381
rtoes 6.05401
lfemur -15.1537 -6.34891 -26.2511
ltibia 33.9031
lfoot -30.082 4.1913
ltoes 5.98831
157
root 0.847441 16.6997 30.6013 -164.477 -4.26253 176.36
lowerback 10.8913 -1.21435 -3.28976
upperback -0.675289 -1.95157 2.02766
thorax -6.6537 -0.818561 4.32218
lowerneck -16.8254 -0.806376 -1.70252
upperneck 14.9744 -0.350915 -1.22106
head 7.37178 -0.345746 -0.156777
rclavicle 6.16232e-015 2.8625e-014
rhumerus -34.2953 -6.00722 -80.7715
rradius 38.0083
rwrist -2.75493
rhand -20.2883 -12.9155
rfingers 7.12502
rthumb 6.06152 -42.8088
lclavicle 6.16232e-015 2.8625e-014
lhumerus -35.5943 -1.72748 88.9837
lradius 39.6115
lwrist -9.41615
lhand -10.0057 10.652
lfingers 7.12502
lthumb 15.9782 40.013
rfemur -44.3327 -6.29901 16.4843
rtibia 52.6265
rfoot -19.1219 -2.95549
rtoes 5.76856
lfemur -15.2633 -6.33115 -26.2551
ltibia 33.8505
lfoot -30.2745 4.36158
ltoes 5.70338
158
root 0.856614 16.6844 30.5253 -164.081 -4.1595 176.317
lowerback 10.9992 -1.22628 -3.27072
upperback -0.646312 -1.96853 2.04598
thorax -6.68239 -0.827678 4.33719
lowerneck -16.7167 -0.774359 -1.68964
upperneck 14.5812 -0.33196 -1.21372
head 7.22406 -0.335719 -0.153429
rclavicle -2.38542e-015 -3.18055e-015
rhumerus -34.2196 -5.83182 -80.8839
rradius 38.246
rwrist -2.861
rhand -20.3168 -12.9274
rfingers 7.12502
rthumb 6.03393 -42.8215
lclavicle -2.38542e-015 -3.18055e-015
lhumerus -35.6494 -1.89385 89.1122
lradius 39.763
lwrist -9.3061
lhand -10.0161 10.7213
lfingers 7.12502
lthumb 15.9681 40.0831
rfemur -44.7435 -6.343 16.5434
rtibia 53.0769
rfoot -19.4841 -2.9011
rtoes 5.52159
lfemur -15.3755 -6.30299 -26.2615
ltibia 33.7857
lfoot -30.4657 4.53281
ltoes 5.38042
159
root 0.866002 16.6686 30.4468 -163.672 -4.05288 176.276
lowerback 11.1044 -1.24043 -3.24995
upperback -0.622794 -1.98795 2.06503
thorax -6.71514 -0.837785 4.3525
lowerneck -16.6071 -0.73933 -1.67423
upperneck 14.1827 -0.308629 -1.20728
head 7.07501 -0.323192 -0.150334
rclavicle 1.8487e-014 2.3059e-014
rhumerus -34.1497 -5.65801 -80.9986
rradius 38.4929
rwrist -2.96669
rhand -20.3469 -12.9319
rfingers 7.12502
rthumb 6.0049 -42.8268
lclavicle 1.8487e-014 2.3059e-014
lhumerus -35.7093 -2.0677 89.2484
lradius 39.9163
lwrist -9.17495
lhand -10.0244 10.7924
lfingers 7.12502
lthumb 15.9602 40.1548
rfemur -45.1653 -6.3842 16.6071
rtibia 53.5355
rfoot -19.8449 -2.85027
rtoes 5.25033
lfemur -15.4881 -6.26655 -26.2652
ltibia 33.7098
lfoot -30.6569 4.6991
ltoes 5.05359
160
root 0.875491 16.6524 30.3658 -163.253 -3.93927 176.238
lowerback 11.2044 -1.25536 -3.22574
upperback -0.601077 -2.00768 2.08454
thorax -6.74691 -0.848142 4.36632
lowerneck -16.4993 -0.702272 -1.65758
upperneck 13.7793 -0.282053 -1.2008
head 6.92517 -0.308702 -0.147129
rclavicle -5.96354e-016 3.18055e-014
rhumerus -34.0895 -5.4799 -81.1174
rradius 38.7611
rwrist -3.07985
rhand -20.3783 -12.9225
rfingers 7.12502
rthumb 5.9746 -42.8183
lclavicle -5.96354e-016 3.18055e-014
lhumerus -35.7676 -2.25245 89.3956
lradius 40.0693
lwrist -9.02149
lhand -10.0378 10.8562
lfingers 7.12502
lthumb 15.9473 40.2196
rfemur -45.5957 -6.42006 16.6757
rtibia 54.0031
rfoot -20.2024 -2.80152
rtoes 4.95322
lfemur -15.5993 -6.22368 -26.2663
ltibia 33.6264
lfoot -30.8508 4.86621
ltoes 4.7207
161
root 0.885209 16.6358 30.2819 -162.83 -3.82382 176.201
lowerback 11.3035 -1.27345 -3.20072
upperback -0.578708 -2.03149 2.10406
thorax -6.77708 -0.860595 4.38035
lowerneck -16.3922 -0.661174 -1.63879
upperneck 13.3693 -0.249892 -1.19352
head 6.77388 -0.290991 -0.143475
rclavicle 1.27222e-014 2.14687e-014
rhumerus -34.0448 -5.29712 -81.2411
rradius 39.0599
rwrist -3.19581
rhand -20.4087 -12.9175
rfingers 7.12502
rthumb 5.94525 -42.814
lclavicle 1.27222e-014 2.14687e-014
lhumerus -35.8235 -2.4526 89.5547
lradius 40.2216
lwrist -8.84188
lhand -10.0601 10.9173
lfingers 7.12502
lthumb 15.9258 40.2825
rfemur -46.0239 -6.45375 16.7455
rtibia 54.4804
rfoot -20.5614 -2.75323
rtoes 4.64545
lfemur -15.6996 -6.17575 -26.267
ltibia 33.5358
lfoot -31.0491 5.03259
ltoes 4.38015
162
root 0.895022 16.6186 30.1954 -162.397 -3.6941 176.173
lowerback 11.3977 -1.28889 -3.16967
upperback -0.557193 -2.05074 2.12393
thorax -6.80601 -0.871057 4.39048
lowerneck -16.29 -0.619148 -1.61814
upperneck 12.9548 -0.215976 -1.18619
head 6.62247 -0.271997 -0.140021
rclavicle -1.51076e-014 2.22639e-014
rhumerus -34.0101 -5.11324 -81.3701
rradius 39.3832
rwrist -3.31892
rhand -20.4435 -12.9005
rfingers 7.12502
rthumb 5.91165 -42.798
lclavicle -1.51076e-014 2.22639e-014
lhumerus -35.8733 -2.67862 89.7306
lradius 40.3719
lwrist -8.63372
lhand -10.1044 10.9656
lfingers 7.12502
lthumb 15.8831 40.3342
rfemur -46.4616 -6.47169 16.822
rtibia 54.9679
rfoot -20.9151 -2.70758
rtoes 4.30602
lfemur -15.7979 -6.12428 -26.2626
ltibia 33.4384
lfoot -31.2478 5.20949
ltoes 4.03901
163
root 0.90488 16.6006 30.1061 -161.962 -3.55223 176.153
lowerback 11.493 -1.3026 -3.13402
upperback -0.534951 -2.06707 2.14473
thorax -6.83516 -0.880283 4.39857
lowerneck -16.1924 -0.574973 -1.59626
upperneck 12.5362 -0.178573 -1.17792
head 6.47102 -0.250823 -0.136203
rclavicle 3.08116e-014 -2.38542e-015
rhumerus -33.9929 -4.92558 -81.5028
rradius 39.7377
rwrist -3.44428
rhand -20.4839 -12.8796
rfingers 7.12502
rthumb 5.87261 -42.7782
lclavicle 3.08116e-014 -2.38542e-015
lhumerus -35.9148 -2.93018 89.9254
lradius 40.5176
lwrist -8.40421
lhand -10.1789 10.9995
lfingers 7.12502
lthumb 15.8114 40.3738
rfemur -46.8997 -6.47491 16.9021
rtibia 55.4674
rfoot -21.2651 -2.66115
rtoes 3.9491
lfemur -15.8845 -6.07288 -26.255
ltibia 33.334
lfoot -31.4501 5.39764
ltoes 3.70355
164
root 0.914969 16.5821 30.014 -161.529 -3.40473 176.145
lowerback 11.5929 -1.31659 -3.0898
upperback -0.510879 -2.08264 2.16876
thorax -6.86518 -0.889503 4.40535
lowerneck -16.0942 -0.528342 -1.57344
upperneck 12.1098 -0.13717 -1.16957
head 6.31749 -0.227235 -0.132192
rclavicle 1.98785e-015 -2.78299e-014
rhumerus -34.0026 -4.72628 -81.6414
rradius 40.1403
rwrist -3.58089
rhand -20.5251 -12.8482
rfingers 7.12502
rthumb 5.83284 -42.7479
lclavicle 1.98785e-015 -2.78299e-014
lhumerus -35.9485 -3.20791 90.1402
lradius 40.6597
lwrist -8.16045
lhand -10.2855 11.0247
lfingers 7.12502
lthumb 15.7087 40.4071
rfemur -47.3325 -6.46297 16.9916
rtibia 55.9814
rfoot -21.6144 -2.61974
rtoes 3.56655
lfemur -15.9545 -6.0275 -26.2364
ltibia 33.2214
lfoot -31.6529 5.59904
ltoes 3.36203
